<svg width="16" height="17" viewBox="0 0 16 17" fill="none" xmlns="http://www.w3.org/2000/svg">
<mask id="mask0_1145_328" style="mask-type:alpha" maskUnits="userSpaceOnUse" x="0" y="0" width="16" height="17">
<rect y="0.5" width="16" height="16" fill="#D9D9D9"/>
</mask>
<g mask="url(#mask0_1145_328)">
<path d="M12.9622 8.62858C12.9622 8.77312 12.9067 8.89818 12.7958 9.00378C12.6849 9.10938 12.5627 9.16218 12.4294 9.16218H4.81261L8.24541 12.595C8.35688 12.7065 8.41261 12.8259 8.41261 12.9534C8.41261 13.0814 8.35688 13.2064 8.24541 13.3286C8.13448 13.4395 8.01234 13.4979 7.87901 13.5038C7.74568 13.5091 7.62354 13.4563 7.51261 13.3454L3.26221 9.07818C3.18434 9.01205 3.12888 8.94005 3.09581 8.86218C3.06221 8.78432 3.04541 8.70645 3.04541 8.62858C3.04541 8.55072 3.06221 8.47285 3.09581 8.39498C3.12888 8.31712 3.18434 8.24512 3.26221 8.17898L7.51261 3.91178C7.62354 3.80085 7.74568 3.74538 7.87901 3.74538C8.01234 3.74538 8.13448 3.80085 8.24541 3.91178C8.35688 4.03392 8.41261 4.16165 8.41261 4.29498C8.41261 4.42832 8.35688 4.55072 8.24541 4.66218L4.82941 8.09498H12.4294C12.5627 8.09498 12.6849 8.14778 12.7958 8.25338C12.9067 8.35898 12.9622 8.48405 12.9622 8.62858Z" fill="black"/>
</g>
</svg>
