<svg width="16" height="16" viewBox="0 0 16 16" fill="none" xmlns="http://www.w3.org/2000/svg">
<mask id="mask0_1266_4134" style="mask-type:alpha" maskUnits="userSpaceOnUse" x="0" y="0" width="16" height="16">
<rect width="16" height="16" fill="#D9D9D9"/>
</mask>
<g mask="url(#mask0_1266_4134)">
<path d="M5.25234 13.181C5.08411 13.0128 5 12.8165 5 12.5922C5 12.3679 5.08411 12.1717 5.25234 12.0034L9.82243 7.43335L5.25234 2.86326C5.08411 2.69503 5 2.49877 5 2.27447C5 2.05017 5.08411 1.85391 5.25234 1.68569C5.42056 1.51746 5.61682 1.43335 5.84112 1.43335C6.06542 1.43335 6.26168 1.51746 6.42991 1.68569L11.4766 6.73241C11.5701 6.82587 11.6404 6.93316 11.6875 7.05428C11.7338 7.17615 11.757 7.30251 11.757 7.43335C11.757 7.56419 11.7338 7.69017 11.6875 7.81129C11.6404 7.93316 11.5701 8.04083 11.4766 8.13428L6.42991 13.181C6.26168 13.3492 6.06542 13.4333 5.84112 13.4333C5.61682 13.4333 5.42056 13.3492 5.25234 13.181Z" fill="black"/>
</g>
</svg>
