<svg width="24" height="24" viewBox="0 0 24 24" fill="none" xmlns="http://www.w3.org/2000/svg">
<mask id="mask0_1262_3866" style="mask-type:alpha" maskUnits="userSpaceOnUse" x="0" y="0" width="24" height="24">
<rect width="24" height="24" fill="#D9D9D9"/>
</mask>
<g mask="url(#mask0_1262_3866)">
<path d="M12.0004 13.05L6.92539 18.125C6.79206 18.2583 6.62139 18.329 6.41339 18.337C6.20472 18.3457 6.02539 18.275 5.87539 18.125C5.72539 17.975 5.65039 17.8 5.65039 17.6C5.65039 17.4 5.72539 17.225 5.87539 17.075L10.9504 12L5.87539 6.925C5.74206 6.79167 5.67139 6.62067 5.66339 6.412C5.65472 6.204 5.72539 6.025 5.87539 5.875C6.02539 5.725 6.20039 5.65 6.40039 5.65C6.60039 5.65 6.77539 5.725 6.92539 5.875L12.0004 10.95L17.0754 5.875C17.2087 5.74167 17.3797 5.67067 17.5884 5.662C17.7964 5.654 17.9754 5.725 18.1254 5.875C18.2754 6.025 18.3504 6.2 18.3504 6.4C18.3504 6.6 18.2754 6.775 18.1254 6.925L13.0504 12L18.1254 17.075C18.2587 17.2083 18.3294 17.379 18.3374 17.587C18.3461 17.7957 18.2754 17.975 18.1254 18.125C17.9754 18.275 17.8004 18.35 17.6004 18.35C17.4004 18.35 17.2254 18.275 17.0754 18.125L12.0004 13.05Z" fill="black"/>
</g>
</svg>
