<svg width="27" height="48" viewBox="0 0 27 48" fill="none" xmlns="http://www.w3.org/2000/svg">
    <g clip-path="url(#clip0_913_318)">
        <path
            d="M24.8239 3H17.8935C17.49 3 17.1261 3.24245 16.9706 3.61478L6.89643 27.7481C6.62143 28.4069 7.10539 29.1333 7.81925 29.1333H9.75146C10.4586 29.1333 10.9423 29.8473 10.6802 30.504L6.09253 41.9987C5.64666 43.1159 7.19021 43.9245 7.8548 42.9219L20.5618 23.7525C21.0024 23.0878 20.5258 22.2 19.7283 22.2H17.8125C17.0554 22.2 16.5729 21.3913 16.9325 20.725L25.7038 4.47499C26.0635 3.80873 25.581 3 24.8239 3Z"
            fill="#D4E7E0" />
        <path
            d="M22.7258 1H14.4746C14.0553 1 13.6805 1.26159 13.5359 1.65518L5.07912 24.6765C4.83935 25.3292 5.32244 26.0213 6.01779 26.0213H8.21446C8.92192 26.0213 9.40568 26.7358 9.14293 27.3927L4.13988 39.9003C3.69264 41.0184 5.23886 41.8277 5.90269 40.823L18.3687 21.9555C18.8079 21.2907 18.3312 20.4043 17.5343 20.4043H14.5295C13.7505 20.4043 13.2706 19.5529 13.674 18.8865L23.5813 2.5178C23.9847 1.85135 23.5049 1 22.7258 1Z"
            stroke="#62A39E" />
    </g>
    <defs>
        <clipPath id="clip0_913_318">
            <rect width="26" height="48" fill="white" transform="translate(0.5)" />
        </clipPath>
    </defs>
</svg>