<svg width="16" height="16" viewBox="0 0 16 16" fill="none" xmlns="http://www.w3.org/2000/svg">
<path d="M8.08301 12.0825C8.26557 12.0825 8.42354 12.0158 8.55692 11.8824C8.69031 11.749 8.757 11.5914 8.757 11.4095V7.89304C8.757 7.72462 8.69031 7.57406 8.55692 7.44135C8.42354 7.30797 8.26557 7.24127 8.08301 7.24127C7.90045 7.24127 7.74247 7.30797 7.60909 7.44135C7.47571 7.57406 7.40901 7.7317 7.40901 7.91426V11.4297C7.40901 11.5981 7.47571 11.749 7.60909 11.8824C7.74247 12.0158 7.90045 12.0825 8.08301 12.0825ZM8.08301 5.7882C8.27971 5.7882 8.44813 5.71443 8.58825 5.5669C8.72837 5.42005 8.79843 5.24826 8.79843 5.05156C8.79843 4.869 8.72837 4.70395 8.58825 4.55642C8.44813 4.40956 8.27971 4.33613 8.08301 4.33613C7.8863 4.33613 7.71789 4.40956 7.57777 4.55642C7.43764 4.70395 7.36758 4.869 7.36758 5.05156C7.36758 5.24826 7.43764 5.42005 7.57777 5.5669C7.71789 5.71443 7.8863 5.7882 8.08301 5.7882ZM8.08301 16.083C6.97417 16.083 5.93202 15.8725 4.95657 15.4515C3.98112 15.0304 3.13568 14.4619 2.42026 13.7458C1.70416 13.0303 1.1356 12.1849 0.71456 11.2094C0.293525 10.234 0.0830078 9.19184 0.0830078 8.08301C0.0830078 6.97417 0.293525 5.93202 0.71456 4.95657C1.1356 3.98112 1.70416 3.13568 2.42026 2.42026C3.13568 1.70416 3.98112 1.1356 4.95657 0.71456C5.93202 0.293525 6.97417 0.0830078 8.08301 0.0830078C9.19184 0.0830078 10.234 0.293525 11.2094 0.71456C12.1849 1.1356 13.0303 1.70416 13.7458 2.42026C14.4619 3.13568 15.0304 3.98112 15.4515 4.95657C15.8725 5.93202 16.083 6.97417 16.083 8.08301C16.083 9.19184 15.8725 10.234 15.4515 11.2094C15.0304 12.1849 14.4619 13.0303 13.7458 13.7458C13.0303 14.4619 12.1849 15.0304 11.2094 15.4515C10.234 15.8725 9.19184 16.083 8.08301 16.083ZM8.08301 14.735C9.92141 14.735 11.4897 14.086 12.7878 12.7878C14.086 11.4897 14.735 9.92141 14.735 8.08301C14.735 6.2446 14.086 4.67633 12.7878 3.3782C11.4897 2.08006 9.92141 1.43099 8.08301 1.43099C6.2446 1.43099 4.67633 2.08006 3.3782 3.3782C2.08006 4.67633 1.43099 6.2446 1.43099 8.08301C1.43099 9.92141 2.08006 11.4897 3.3782 12.7878C4.67633 14.086 6.2446 14.735 8.08301 14.735Z" fill="black"/>
</svg>
