<svg width="16" height="17" viewBox="0 0 16 17" fill="none" xmlns="http://www.w3.org/2000/svg">
<path d="M8 16.5C6.9014 16.5 5.8647 16.2915 4.88989 15.8744C3.91578 15.4566 3.06581 14.8852 2.33997 14.16C1.61484 13.4342 1.04339 12.5842 0.62561 11.6101C0.208537 10.6353 0 9.5986 0 8.5C0 7.38663 0.208537 6.34641 0.62561 5.37933C1.04339 4.41226 1.61484 3.56581 2.33997 2.83997C3.06581 2.11484 3.91578 1.54339 4.88989 1.12561C5.8647 0.708537 6.9014 0.5 8 0.5C9.11337 0.5 10.1536 0.708537 11.1207 1.12561C12.0877 1.54339 12.9342 2.11484 13.66 2.83997C14.3852 3.56581 14.9566 4.41226 15.3744 5.37933C15.7915 6.34641 16 7.38663 16 8.5C16 9.5986 15.7915 10.6353 15.3744 11.6101C14.9566 12.5842 14.3852 13.4342 13.66 14.16C12.9342 14.8852 12.0877 15.4566 11.1207 15.8744C10.1536 16.2915 9.11337 16.5 8 16.5ZM8 15.3131C8.32212 15.0058 8.61893 14.4931 8.89041 13.775C9.16119 13.0569 9.37712 12.2582 9.53818 11.3791H6.46182C6.62288 12.273 6.83881 13.079 7.10959 13.7971C7.38107 14.5152 7.67788 15.0205 8 15.3131ZM6.5937 15.2034C6.31518 14.7638 6.06233 14.2107 5.83516 13.5439C5.60798 12.8772 5.43567 12.1555 5.31821 11.3791H1.77977C2.24889 12.3905 2.90474 13.233 3.74733 13.9068C4.58992 14.5806 5.5387 15.0128 6.5937 15.2034ZM9.4063 15.2034C10.4613 15.0128 11.4101 14.5806 12.2527 13.9068C13.0953 13.233 13.7511 12.3905 14.2202 11.3791H10.6818C10.5348 12.1555 10.3516 12.881 10.1321 13.5555C9.912 14.2293 9.67005 14.7786 9.4063 15.2034ZM11.165 10.2365H14.9893C15.0477 9.92846 15.0881 9.63165 15.1106 9.3461C15.1324 9.06055 15.1433 8.77852 15.1433 8.5C15.1433 8.22148 15.1324 7.93593 15.1106 7.64335C15.0881 7.35006 15.0477 7.05677 14.9893 6.76348H11.165C11.1797 7.042 11.1871 7.33529 11.1871 7.64335V9.42312C11.1871 9.7164 11.1797 9.98754 11.165 10.2365ZM6.3732 10.2365H9.6268C9.6704 9.91439 9.69959 9.61407 9.71436 9.33555C9.72913 9.05703 9.73652 8.77852 9.73652 8.5C9.73652 8.22148 9.72913 7.93945 9.71436 7.6539C9.69959 7.36835 9.6704 7.07154 9.6268 6.76348H6.3732C6.3296 7.07154 6.30041 7.36835 6.28564 7.6539C6.27087 7.93945 6.26348 8.22148 6.26348 8.5C6.26348 8.77852 6.27087 9.06055 6.28564 9.3461C6.30041 9.63165 6.3296 9.92846 6.3732 10.2365ZM1.01068 10.2365H4.83503C4.82026 9.958 4.81287 9.66471 4.81287 9.35665V7.57688C4.81287 7.28359 4.82026 7.01246 4.83503 6.76348H1.01068C0.952305 7.07154 0.911864 7.36835 0.889358 7.6539C0.867554 7.93945 0.856653 8.22148 0.856653 8.5C0.856653 8.77852 0.867554 9.06055 0.889358 9.3461C0.911864 9.63165 0.952305 9.92846 1.01068 10.2365ZM10.6818 5.62093H14.2202C13.7511 4.59477 13.0991 3.75219 12.2643 3.09317C11.4287 2.43415 10.4761 1.99457 9.4063 1.77443C9.68482 2.24355 9.93415 2.80762 10.1543 3.46664C10.3737 4.12636 10.5496 4.84445 10.6818 5.62093ZM6.46182 5.62093H9.53818C9.37712 4.727 9.15381 3.9136 8.86826 3.18073C8.58271 2.44857 8.29329 1.95061 8 1.68687C7.70671 1.95061 7.41729 2.44857 7.13174 3.18073C6.84619 3.9136 6.62288 4.727 6.46182 5.62093ZM1.77977 5.62093H5.31821C5.45044 4.84445 5.62627 4.12636 5.84571 3.46664C6.06585 2.80762 6.31518 2.24355 6.5937 1.77443C5.50916 1.99457 4.55299 2.43415 3.72517 3.09317C2.89736 3.75219 2.24889 4.59477 1.77977 5.62093Z" fill="black"/>
</svg>
