<svg width="26" height="43" viewBox="0 0 26 43" fill="none" xmlns="http://www.w3.org/2000/svg">
<g clip-path="url(#clip0_1569_206)">
<path d="M24.3239 2H17.3935C16.99 2 16.6261 2.24245 16.4706 2.61478L6.39643 26.7481C6.12143 27.4069 6.60539 28.1333 7.31925 28.1333H9.25146C9.95859 28.1333 10.4423 28.8473 10.1802 29.504L5.59253 40.9987C5.14666 42.1159 6.69021 42.9245 7.3548 41.9219L20.0618 22.7525C20.5024 22.0878 20.0258 21.2 19.2283 21.2H17.3125C16.5554 21.2 16.0729 20.3913 16.4325 19.725L25.2038 3.47499C25.5635 2.80873 25.081 2 24.3239 2Z" fill="#B1D1CF"/>
<path d="M22.2258 1H13.9746C13.5553 1 13.1805 1.26159 13.0359 1.65518L4.57912 24.6765C4.33935 25.3292 4.82244 26.0213 5.51779 26.0213H7.71446C8.42192 26.0213 8.90568 26.7358 8.64293 27.3927L3.63988 39.9003C3.19264 41.0184 4.73886 41.8277 5.40269 40.823L17.8687 21.9555C18.3079 21.2907 17.8312 20.4043 17.0343 20.4043H14.0295C13.2505 20.4043 12.7706 19.5529 13.174 18.8865L23.0813 2.5178C23.4847 1.85135 23.0049 1 22.2258 1Z" stroke="#62A39E"/>
</g>
<defs>
<clipPath id="clip0_1569_206">
<rect width="26" height="43" fill="white"/>
</clipPath>
</defs>
</svg>
