<svg width="159" height="43" viewBox="0 0 159 43" fill="none" xmlns="http://www.w3.org/2000/svg">
<g clip-path="url(#clip0_1315_3397)">
<path d="M24.3239 2H17.3935C16.99 2 16.6261 2.24245 16.4706 2.61478L6.39643 26.7481C6.12143 27.4069 6.60539 28.1333 7.31925 28.1333H9.25146C9.95859 28.1333 10.4423 28.8473 10.1802 29.504L5.59253 40.9987C5.14666 42.1159 6.69021 42.9245 7.3548 41.9219L20.0618 22.7525C20.5024 22.0878 20.0258 21.2 19.2283 21.2H17.3125C16.5554 21.2 16.0729 20.3913 16.4325 19.725L25.2038 3.47499C25.5635 2.80873 25.081 2 24.3239 2Z" fill="#B1D1CF"/>
<path d="M22.2258 1H13.9746C13.5553 1 13.1805 1.26159 13.0359 1.65518L4.57912 24.6765C4.33935 25.3292 4.82244 26.0213 5.51779 26.0213H7.71446C8.42192 26.0213 8.90568 26.7358 8.64293 27.3927L3.63988 39.9003C3.19264 41.0184 4.73886 41.8277 5.40269 40.823L17.8687 21.9555C18.3079 21.2907 17.8312 20.4043 17.0343 20.4043H14.0295C13.2505 20.4043 12.7706 19.5529 13.174 18.8865L23.0813 2.5178C23.4847 1.85135 23.0049 1 22.2258 1Z" stroke="#62A39E"/>
</g>
<path d="M41.488 26.432C41.712 26.432 41.8987 26.5067 42.048 26.656C42.208 26.8053 42.288 26.992 42.288 27.216C42.288 27.44 42.208 27.6267 42.048 27.776C41.8987 27.9253 41.712 28 41.488 28H36.112C35.8773 28 35.68 27.9253 35.52 27.776C35.3707 27.616 35.296 27.4187 35.296 27.184V17.616C35.296 17.3813 35.376 17.1893 35.536 17.04C35.696 16.88 35.904 16.8 36.16 16.8C36.3733 16.8 36.56 16.88 36.72 17.04C36.8907 17.1893 36.976 17.3813 36.976 17.616V26.704L36.64 26.432H41.488ZM50.8441 19.456C51.0788 19.456 51.2708 19.536 51.4201 19.696C51.5695 19.8453 51.6441 20.0373 51.6441 20.272V27.184C51.6441 27.4187 51.5695 27.616 51.4201 27.776C51.2708 27.9253 51.0788 28 50.8441 28C50.6201 28 50.4281 27.9253 50.2681 27.776C50.1188 27.616 50.0441 27.4187 50.0441 27.184V26.032L50.3801 26.08C50.3801 26.272 50.3001 26.4853 50.1401 26.72C49.9908 26.9547 49.7828 27.184 49.5161 27.408C49.2495 27.6213 48.9348 27.8027 48.5721 27.952C48.2095 28.0907 47.8201 28.16 47.4041 28.16C46.6681 28.16 46.0068 27.9733 45.4201 27.6C44.8335 27.216 44.3695 26.6933 44.0281 26.032C43.6868 25.3707 43.5161 24.6187 43.5161 23.776C43.5161 22.912 43.6868 22.1547 44.0281 21.504C44.3695 20.8427 44.8281 20.3253 45.4041 19.952C45.9908 19.5787 46.6415 19.392 47.3561 19.392C47.8148 19.392 48.2361 19.4667 48.6201 19.616C49.0148 19.7653 49.3561 19.9573 49.6441 20.192C49.9321 20.4267 50.1508 20.6773 50.3001 20.944C50.4601 21.2 50.5401 21.4453 50.5401 21.68L50.0441 21.728V20.272C50.0441 20.048 50.1188 19.856 50.2681 19.696C50.4281 19.536 50.6201 19.456 50.8441 19.456ZM47.5801 26.688C48.0815 26.688 48.5241 26.56 48.9081 26.304C49.2921 26.048 49.5908 25.7013 49.8041 25.264C50.0175 24.816 50.1241 24.32 50.1241 23.776C50.1241 23.2213 50.0175 22.7253 49.8041 22.288C49.5908 21.8507 49.2921 21.504 48.9081 21.248C48.5241 20.992 48.0815 20.864 47.5801 20.864C47.0895 20.864 46.6521 20.992 46.2681 21.248C45.8948 21.504 45.5961 21.8507 45.3721 22.288C45.1588 22.7253 45.0521 23.2213 45.0521 23.776C45.0521 24.32 45.1588 24.816 45.3721 25.264C45.5961 25.7013 45.8948 26.048 46.2681 26.304C46.6521 26.56 47.0895 26.688 47.5801 26.688ZM60.7816 16.16C61.0163 16.16 61.2083 16.2347 61.3576 16.384C61.507 16.5333 61.5816 16.7307 61.5816 16.976V27.184C61.5816 27.4187 61.507 27.616 61.3576 27.776C61.2083 27.9253 61.0163 28 60.7816 28C60.5576 28 60.3656 27.9253 60.2056 27.776C60.0563 27.616 59.9816 27.4187 59.9816 27.184V26.032L60.3176 26.048C60.3176 26.24 60.2376 26.4587 60.0776 26.704C59.9283 26.9387 59.7203 27.168 59.4536 27.392C59.187 27.616 58.8723 27.8027 58.5096 27.952C58.147 28.0907 57.7576 28.16 57.3416 28.16C56.6056 28.16 55.9443 27.9733 55.3576 27.6C54.771 27.216 54.307 26.6987 53.9656 26.048C53.6243 25.3867 53.4536 24.6293 53.4536 23.776C53.4536 22.9227 53.6243 22.1707 53.9656 21.52C54.307 20.8587 54.7656 20.3413 55.3416 19.968C55.9283 19.584 56.579 19.392 57.2936 19.392C57.7416 19.392 58.1576 19.4667 58.5416 19.616C58.9363 19.7653 59.2776 19.9573 59.5656 20.192C59.8536 20.4267 60.0776 20.6773 60.2376 20.944C60.3976 21.2 60.4776 21.4453 60.4776 21.68L59.9816 21.728V16.976C59.9816 16.7413 60.0563 16.5493 60.2056 16.4C60.3656 16.24 60.5576 16.16 60.7816 16.16ZM57.5176 26.688C58.0296 26.688 58.4723 26.56 58.8456 26.304C59.2296 26.048 59.5283 25.7013 59.7416 25.264C59.955 24.8267 60.0616 24.3307 60.0616 23.776C60.0616 23.2213 59.955 22.7253 59.7416 22.288C59.5283 21.8507 59.2296 21.504 58.8456 21.248C58.4616 20.992 58.019 20.864 57.5176 20.864C57.027 20.864 56.5896 20.992 56.2056 21.248C55.8323 21.504 55.5336 21.8507 55.3096 22.288C55.0963 22.7253 54.9896 23.2213 54.9896 23.776C54.9896 24.3307 55.0963 24.8267 55.3096 25.264C55.5336 25.7013 55.8323 26.048 56.2056 26.304C56.5896 26.56 57.027 26.688 57.5176 26.688ZM67.7431 28.16C66.8578 28.16 66.0898 27.9787 65.4391 27.616C64.7885 27.2427 64.2818 26.736 63.9191 26.096C63.5671 25.4453 63.3911 24.704 63.3911 23.872C63.3911 22.9333 63.5778 22.1333 63.9511 21.472C64.3351 20.8 64.8311 20.288 65.4391 19.936C66.0471 19.5733 66.6925 19.392 67.3751 19.392C67.8978 19.392 68.3938 19.4987 68.8631 19.712C69.3325 19.9147 69.7485 20.2027 70.1111 20.576C70.4845 20.9387 70.7778 21.3707 70.9911 21.872C71.2045 22.3627 71.3165 22.9013 71.3271 23.488C71.3165 23.7013 71.2311 23.8773 71.0711 24.016C70.9111 24.1547 70.7245 24.224 70.5111 24.224H64.2871L63.9031 22.864H69.9191L69.6151 23.152V22.752C69.5938 22.3787 69.4711 22.0533 69.2471 21.776C69.0231 21.488 68.7458 21.2693 68.4151 21.12C68.0845 20.96 67.7378 20.88 67.3751 20.88C67.0551 20.88 66.7458 20.9333 66.4471 21.04C66.1591 21.136 65.8978 21.296 65.6631 21.52C65.4391 21.744 65.2578 22.0427 65.1191 22.416C64.9911 22.7787 64.9271 23.232 64.9271 23.776C64.9271 24.3627 65.0498 24.8747 65.2951 25.312C65.5405 25.7493 65.8711 26.0907 66.2871 26.336C66.7031 26.5707 67.1618 26.688 67.6631 26.688C68.0578 26.688 68.3831 26.6507 68.6391 26.576C68.8951 26.4907 69.1085 26.3893 69.2791 26.272C69.4498 26.1547 69.5991 26.0427 69.7271 25.936C69.8871 25.84 70.0471 25.792 70.2071 25.792C70.3991 25.792 70.5591 25.8613 70.6871 26C70.8151 26.128 70.8791 26.2827 70.8791 26.464C70.8791 26.6987 70.7618 26.912 70.5271 27.104C70.2391 27.3813 69.8391 27.6267 69.3271 27.84C68.8258 28.0533 68.2978 28.16 67.7431 28.16ZM80.0941 19.456C80.3288 19.456 80.5208 19.536 80.6701 19.696C80.8195 19.8453 80.8941 20.0373 80.8941 20.272V27.184C80.8941 27.4187 80.8195 27.616 80.6701 27.776C80.5208 27.9253 80.3288 28 80.0941 28C79.8701 28 79.6781 27.9253 79.5181 27.776C79.3688 27.616 79.2941 27.4187 79.2941 27.184V26.032L79.6301 26.08C79.6301 26.272 79.5501 26.4853 79.3901 26.72C79.2408 26.9547 79.0328 27.184 78.7661 27.408C78.4995 27.6213 78.1848 27.8027 77.8221 27.952C77.4595 28.0907 77.0701 28.16 76.6541 28.16C75.9181 28.16 75.2568 27.9733 74.6701 27.6C74.0835 27.216 73.6195 26.6933 73.2781 26.032C72.9368 25.3707 72.7661 24.6187 72.7661 23.776C72.7661 22.912 72.9368 22.1547 73.2781 21.504C73.6195 20.8427 74.0781 20.3253 74.6541 19.952C75.2408 19.5787 75.8915 19.392 76.6061 19.392C77.0648 19.392 77.4861 19.4667 77.8701 19.616C78.2648 19.7653 78.6061 19.9573 78.8941 20.192C79.1821 20.4267 79.4008 20.6773 79.5501 20.944C79.7101 21.2 79.7901 21.4453 79.7901 21.68L79.2941 21.728V20.272C79.2941 20.048 79.3688 19.856 79.5181 19.696C79.6781 19.536 79.8701 19.456 80.0941 19.456ZM76.8301 26.688C77.3315 26.688 77.7741 26.56 78.1581 26.304C78.5421 26.048 78.8408 25.7013 79.0541 25.264C79.2675 24.816 79.3741 24.32 79.3741 23.776C79.3741 23.2213 79.2675 22.7253 79.0541 22.288C78.8408 21.8507 78.5421 21.504 78.1581 21.248C77.7741 20.992 77.3315 20.864 76.8301 20.864C76.3395 20.864 75.9021 20.992 75.5181 21.248C75.1448 21.504 74.8461 21.8507 74.6221 22.288C74.4088 22.7253 74.3021 23.2213 74.3021 23.776C74.3021 24.32 74.4088 24.816 74.6221 25.264C74.8461 25.7013 75.1448 26.048 75.5181 26.304C75.9021 26.56 76.3395 26.688 76.8301 26.688ZM82.6396 26.688C82.5436 26.5387 82.501 26.368 82.5116 26.176C82.5223 25.9733 82.6343 25.8027 82.8476 25.664C82.997 25.568 83.1516 25.5307 83.3116 25.552C83.4823 25.5627 83.6423 25.6427 83.7916 25.792C84.0903 26.1227 84.421 26.384 84.7836 26.576C85.157 26.768 85.605 26.864 86.1276 26.864C86.341 26.8533 86.5596 26.8213 86.7836 26.768C87.0076 26.704 87.1996 26.5973 87.3596 26.448C87.5196 26.288 87.5996 26.0587 87.5996 25.76C87.5996 25.4933 87.5143 25.28 87.3436 25.12C87.173 24.96 86.949 24.832 86.6716 24.736C86.3943 24.6293 86.0956 24.5333 85.7756 24.448C85.4343 24.352 85.0876 24.2453 84.7356 24.128C84.3943 24.0107 84.085 23.8613 83.8076 23.68C83.5303 23.488 83.301 23.2427 83.1196 22.944C82.949 22.6453 82.8636 22.2773 82.8636 21.84C82.8636 21.3387 83.0023 20.9067 83.2796 20.544C83.5676 20.1813 83.9356 19.8987 84.3836 19.696C84.8423 19.4933 85.3383 19.392 85.8716 19.392C86.181 19.392 86.5063 19.4347 86.8476 19.52C87.189 19.5947 87.5196 19.7173 87.8396 19.888C88.1596 20.0587 88.437 20.2827 88.6716 20.56C88.7783 20.6987 88.837 20.864 88.8476 21.056C88.869 21.248 88.7836 21.4187 88.5916 21.568C88.4636 21.6747 88.309 21.7227 88.1276 21.712C87.9463 21.7013 87.797 21.6427 87.6796 21.536C87.477 21.28 87.2156 21.0827 86.8956 20.944C86.5756 20.7947 86.213 20.72 85.8076 20.72C85.605 20.72 85.3916 20.752 85.1676 20.816C84.9543 20.8693 84.773 20.9707 84.6236 21.12C84.4743 21.2693 84.3996 21.488 84.3996 21.776C84.3996 22.0427 84.485 22.256 84.6556 22.416C84.837 22.576 85.0716 22.7093 85.3596 22.816C85.6476 22.9227 85.9623 23.0187 86.3036 23.104C86.6343 23.1893 86.9596 23.2907 87.2796 23.408C87.6103 23.5253 87.9036 23.68 88.1596 23.872C88.4263 24.0533 88.6396 24.2933 88.7996 24.592C88.9703 24.88 89.0556 25.248 89.0556 25.696C89.0556 26.2187 88.901 26.6667 88.5916 27.04C88.293 27.4027 87.909 27.68 87.4396 27.872C86.981 28.064 86.4956 28.16 85.9836 28.16C85.3756 28.16 84.7676 28.0533 84.1596 27.84C83.5623 27.616 83.0556 27.232 82.6396 26.688ZM90.2803 26.688C90.1843 26.5387 90.1416 26.368 90.1523 26.176C90.1629 25.9733 90.2749 25.8027 90.4883 25.664C90.6376 25.568 90.7922 25.5307 90.9523 25.552C91.1229 25.5627 91.2829 25.6427 91.4323 25.792C91.7309 26.1227 92.0616 26.384 92.4243 26.576C92.7976 26.768 93.2456 26.864 93.7682 26.864C93.9816 26.8533 94.2003 26.8213 94.4243 26.768C94.6483 26.704 94.8403 26.5973 95.0003 26.448C95.1603 26.288 95.2403 26.0587 95.2403 25.76C95.2403 25.4933 95.1549 25.28 94.9843 25.12C94.8136 24.96 94.5896 24.832 94.3123 24.736C94.0349 24.6293 93.7363 24.5333 93.4163 24.448C93.0749 24.352 92.7283 24.2453 92.3763 24.128C92.0349 24.0107 91.7256 23.8613 91.4483 23.68C91.1709 23.488 90.9416 23.2427 90.7603 22.944C90.5896 22.6453 90.5043 22.2773 90.5043 21.84C90.5043 21.3387 90.6429 20.9067 90.9203 20.544C91.2083 20.1813 91.5763 19.8987 92.0243 19.696C92.4829 19.4933 92.9789 19.392 93.5123 19.392C93.8216 19.392 94.1469 19.4347 94.4883 19.52C94.8296 19.5947 95.1603 19.7173 95.4803 19.888C95.8003 20.0587 96.0776 20.2827 96.3123 20.56C96.4189 20.6987 96.4776 20.864 96.4883 21.056C96.5096 21.248 96.4243 21.4187 96.2323 21.568C96.1043 21.6747 95.9496 21.7227 95.7683 21.712C95.5869 21.7013 95.4376 21.6427 95.3203 21.536C95.1176 21.28 94.8563 21.0827 94.5363 20.944C94.2163 20.7947 93.8536 20.72 93.4483 20.72C93.2456 20.72 93.0323 20.752 92.8083 20.816C92.5949 20.8693 92.4136 20.9707 92.2643 21.12C92.1149 21.2693 92.0403 21.488 92.0403 21.776C92.0403 22.0427 92.1256 22.256 92.2963 22.416C92.4776 22.576 92.7123 22.7093 93.0003 22.816C93.2883 22.9227 93.6029 23.0187 93.9443 23.104C94.2749 23.1893 94.6003 23.2907 94.9203 23.408C95.2509 23.5253 95.5443 23.68 95.8003 23.872C96.0669 24.0533 96.2803 24.2933 96.4403 24.592C96.6109 24.88 96.6963 25.248 96.6963 25.696C96.6963 26.2187 96.5416 26.6667 96.2323 27.04C95.9336 27.4027 95.5496 27.68 95.0803 27.872C94.6216 28.064 94.1363 28.16 93.6243 28.16C93.0163 28.16 92.4083 28.0533 91.8003 27.84C91.2029 27.616 90.6963 27.232 90.2803 26.688ZM99.9209 27.184C99.9209 27.4187 99.8462 27.616 99.6969 27.776C99.5475 27.9253 99.3555 28 99.1209 28C98.8969 28 98.7049 27.9253 98.5449 27.776C98.3955 27.616 98.3209 27.4187 98.3209 27.184V20.336C98.3209 20.1013 98.3955 19.9093 98.5449 19.76C98.7049 19.6 98.8969 19.52 99.1209 19.52C99.3555 19.52 99.5475 19.6 99.6969 19.76C99.8462 19.9093 99.9209 20.1013 99.9209 20.336V27.184ZM99.1049 18.464C98.7955 18.464 98.5715 18.4107 98.4329 18.304C98.2942 18.1867 98.2249 17.9947 98.2249 17.728V17.472C98.2249 17.2053 98.2995 17.0187 98.4489 16.912C98.5982 16.8053 98.8222 16.752 99.1209 16.752C99.4409 16.752 99.6702 16.8107 99.8089 16.928C99.9475 17.0347 100.017 17.216 100.017 17.472V17.728C100.017 18.0053 99.9422 18.1973 99.7929 18.304C99.6542 18.4107 99.4249 18.464 99.1049 18.464ZM101.577 26.688C101.481 26.5387 101.438 26.368 101.449 26.176C101.46 25.9733 101.572 25.8027 101.785 25.664C101.934 25.568 102.089 25.5307 102.249 25.552C102.42 25.5627 102.58 25.6427 102.729 25.792C103.028 26.1227 103.358 26.384 103.721 26.576C104.094 26.768 104.542 26.864 105.065 26.864C105.278 26.8533 105.497 26.8213 105.721 26.768C105.945 26.704 106.137 26.5973 106.297 26.448C106.457 26.288 106.537 26.0587 106.537 25.76C106.537 25.4933 106.452 25.28 106.281 25.12C106.11 24.96 105.886 24.832 105.609 24.736C105.332 24.6293 105.033 24.5333 104.713 24.448C104.372 24.352 104.025 24.2453 103.673 24.128C103.332 24.0107 103.022 23.8613 102.745 23.68C102.468 23.488 102.238 23.2427 102.057 22.944C101.886 22.6453 101.801 22.2773 101.801 21.84C101.801 21.3387 101.94 20.9067 102.217 20.544C102.505 20.1813 102.873 19.8987 103.321 19.696C103.78 19.4933 104.276 19.392 104.809 19.392C105.118 19.392 105.444 19.4347 105.785 19.52C106.126 19.5947 106.457 19.7173 106.777 19.888C107.097 20.0587 107.374 20.2827 107.609 20.56C107.716 20.6987 107.774 20.864 107.785 21.056C107.806 21.248 107.721 21.4187 107.529 21.568C107.401 21.6747 107.246 21.7227 107.065 21.712C106.884 21.7013 106.734 21.6427 106.617 21.536C106.414 21.28 106.153 21.0827 105.833 20.944C105.513 20.7947 105.15 20.72 104.745 20.72C104.542 20.72 104.329 20.752 104.105 20.816C103.892 20.8693 103.71 20.9707 103.561 21.12C103.412 21.2693 103.337 21.488 103.337 21.776C103.337 22.0427 103.422 22.256 103.593 22.416C103.774 22.576 104.009 22.7093 104.297 22.816C104.585 22.9227 104.9 23.0187 105.241 23.104C105.572 23.1893 105.897 23.2907 106.217 23.408C106.548 23.5253 106.841 23.68 107.097 23.872C107.364 24.0533 107.577 24.2933 107.737 24.592C107.908 24.88 107.993 25.248 107.993 25.696C107.993 26.2187 107.838 26.6667 107.529 27.04C107.23 27.4027 106.846 27.68 106.377 27.872C105.918 28.064 105.433 28.16 104.921 28.16C104.313 28.16 103.705 28.0533 103.097 27.84C102.5 27.616 101.993 27.232 101.577 26.688ZM109.602 19.68H113.362C113.575 19.68 113.751 19.7547 113.89 19.904C114.039 20.0427 114.114 20.2187 114.114 20.432C114.114 20.6347 114.039 20.8053 113.89 20.944C113.751 21.0827 113.575 21.152 113.362 21.152H109.602C109.388 21.152 109.207 21.0827 109.058 20.944C108.919 20.7947 108.85 20.6187 108.85 20.416C108.85 20.2027 108.919 20.0267 109.058 19.888C109.207 19.7493 109.388 19.68 109.602 19.68ZM111.282 17.6C111.516 17.6 111.708 17.68 111.858 17.84C112.007 17.9893 112.082 18.1813 112.082 18.416V25.84C112.082 26.032 112.114 26.1867 112.178 26.304C112.242 26.4213 112.327 26.5013 112.434 26.544C112.551 26.5867 112.668 26.608 112.786 26.608C112.903 26.608 113.004 26.5867 113.09 26.544C113.186 26.5013 113.298 26.48 113.426 26.48C113.554 26.48 113.671 26.5387 113.778 26.656C113.884 26.7733 113.938 26.9333 113.938 27.136C113.938 27.392 113.799 27.6 113.522 27.76C113.244 27.92 112.946 28 112.626 28C112.444 28 112.231 27.984 111.986 27.952C111.74 27.92 111.5 27.84 111.266 27.712C111.042 27.584 110.855 27.3813 110.706 27.104C110.556 26.816 110.482 26.416 110.482 25.904V18.416C110.482 18.1813 110.556 17.9893 110.706 17.84C110.866 17.68 111.058 17.6 111.282 17.6ZM119.728 28.16C118.842 28.16 118.074 27.9787 117.424 27.616C116.773 27.2427 116.266 26.736 115.904 26.096C115.552 25.4453 115.376 24.704 115.376 23.872C115.376 22.9333 115.562 22.1333 115.936 21.472C116.32 20.8 116.816 20.288 117.424 19.936C118.032 19.5733 118.677 19.392 119.36 19.392C119.882 19.392 120.378 19.4987 120.848 19.712C121.317 19.9147 121.733 20.2027 122.096 20.576C122.469 20.9387 122.762 21.3707 122.976 21.872C123.189 22.3627 123.301 22.9013 123.312 23.488C123.301 23.7013 123.216 23.8773 123.056 24.016C122.896 24.1547 122.709 24.224 122.496 24.224H116.272L115.888 22.864H121.904L121.6 23.152V22.752C121.578 22.3787 121.456 22.0533 121.232 21.776C121.008 21.488 120.73 21.2693 120.4 21.12C120.069 20.96 119.722 20.88 119.36 20.88C119.04 20.88 118.73 20.9333 118.432 21.04C118.144 21.136 117.882 21.296 117.648 21.52C117.424 21.744 117.242 22.0427 117.104 22.416C116.976 22.7787 116.912 23.232 116.912 23.776C116.912 24.3627 117.034 24.8747 117.28 25.312C117.525 25.7493 117.856 26.0907 118.272 26.336C118.688 26.5707 119.146 26.688 119.648 26.688C120.042 26.688 120.368 26.6507 120.624 26.576C120.88 26.4907 121.093 26.3893 121.264 26.272C121.434 26.1547 121.584 26.0427 121.712 25.936C121.872 25.84 122.032 25.792 122.192 25.792C122.384 25.792 122.544 25.8613 122.672 26C122.8 26.128 122.864 26.2827 122.864 26.464C122.864 26.6987 122.746 26.912 122.512 27.104C122.224 27.3813 121.824 27.6267 121.312 27.84C120.81 28.0533 120.282 28.16 119.728 28.16ZM129.456 19.392C130.213 19.392 130.8 19.552 131.216 19.872C131.632 20.1813 131.92 20.6027 132.08 21.136C132.251 21.6587 132.336 22.2453 132.336 22.896V27.184C132.336 27.4187 132.256 27.616 132.096 27.776C131.947 27.9253 131.76 28 131.536 28C131.301 28 131.109 27.9253 130.96 27.776C130.811 27.616 130.736 27.4187 130.736 27.184V22.912C130.736 22.528 130.683 22.1867 130.576 21.888C130.469 21.5787 130.283 21.3333 130.016 21.152C129.76 20.96 129.397 20.864 128.928 20.864C128.491 20.864 128.107 20.96 127.776 21.152C127.445 21.3333 127.184 21.5787 126.992 21.888C126.811 22.1867 126.72 22.528 126.72 22.912V27.184C126.72 27.4187 126.64 27.616 126.48 27.776C126.331 27.9253 126.144 28 125.92 28C125.685 28 125.493 27.9253 125.344 27.776C125.195 27.616 125.12 27.4187 125.12 27.184V20.4C125.12 20.1653 125.195 19.9733 125.344 19.824C125.493 19.664 125.685 19.584 125.92 19.584C126.144 19.584 126.331 19.664 126.48 19.824C126.64 19.9733 126.72 20.1653 126.72 20.4V21.296L126.432 21.456C126.507 21.2213 126.635 20.9867 126.816 20.752C127.008 20.5067 127.237 20.2827 127.504 20.08C127.771 19.8667 128.069 19.7013 128.4 19.584C128.731 19.456 129.083 19.392 129.456 19.392ZM134.446 19.68H138.206C138.419 19.68 138.595 19.7547 138.734 19.904C138.883 20.0427 138.958 20.2187 138.958 20.432C138.958 20.6347 138.883 20.8053 138.734 20.944C138.595 21.0827 138.419 21.152 138.206 21.152H134.446C134.232 21.152 134.051 21.0827 133.902 20.944C133.763 20.7947 133.694 20.6187 133.694 20.416C133.694 20.2027 133.763 20.0267 133.902 19.888C134.051 19.7493 134.232 19.68 134.446 19.68ZM136.126 17.6C136.36 17.6 136.552 17.68 136.702 17.84C136.851 17.9893 136.926 18.1813 136.926 18.416V25.84C136.926 26.032 136.958 26.1867 137.022 26.304C137.086 26.4213 137.171 26.5013 137.278 26.544C137.395 26.5867 137.512 26.608 137.63 26.608C137.747 26.608 137.848 26.5867 137.934 26.544C138.03 26.5013 138.142 26.48 138.27 26.48C138.398 26.48 138.515 26.5387 138.622 26.656C138.728 26.7733 138.782 26.9333 138.782 27.136C138.782 27.392 138.643 27.6 138.366 27.76C138.088 27.92 137.79 28 137.47 28C137.288 28 137.075 27.984 136.83 27.952C136.584 27.92 136.344 27.84 136.11 27.712C135.886 27.584 135.699 27.3813 135.549 27.104C135.4 26.816 135.326 26.416 135.326 25.904V18.416C135.326 18.1813 135.4 17.9893 135.549 17.84C135.709 17.68 135.902 17.6 136.126 17.6ZM144.571 28.16C143.686 28.16 142.918 27.9787 142.267 27.616C141.617 27.2427 141.11 26.736 140.747 26.096C140.395 25.4453 140.219 24.704 140.219 23.872C140.219 22.9333 140.406 22.1333 140.779 21.472C141.163 20.8 141.659 20.288 142.267 19.936C142.875 19.5733 143.521 19.392 144.203 19.392C144.726 19.392 145.222 19.4987 145.691 19.712C146.161 19.9147 146.577 20.2027 146.939 20.576C147.313 20.9387 147.606 21.3707 147.819 21.872C148.033 22.3627 148.145 22.9013 148.155 23.488C148.145 23.7013 148.059 23.8773 147.899 24.016C147.739 24.1547 147.553 24.224 147.339 24.224H141.115L140.731 22.864H146.747L146.443 23.152V22.752C146.422 22.3787 146.299 22.0533 146.075 21.776C145.851 21.488 145.574 21.2693 145.243 21.12C144.913 20.96 144.566 20.88 144.203 20.88C143.883 20.88 143.574 20.9333 143.275 21.04C142.987 21.136 142.726 21.296 142.491 21.52C142.267 21.744 142.086 22.0427 141.947 22.416C141.819 22.7787 141.755 23.232 141.755 23.776C141.755 24.3627 141.878 24.8747 142.123 25.312C142.369 25.7493 142.699 26.0907 143.115 26.336C143.531 26.5707 143.99 26.688 144.491 26.688C144.886 26.688 145.211 26.6507 145.467 26.576C145.723 26.4907 145.937 26.3893 146.107 26.272C146.278 26.1547 146.427 26.0427 146.555 25.936C146.715 25.84 146.875 25.792 147.035 25.792C147.227 25.792 147.387 25.8613 147.515 26C147.643 26.128 147.707 26.2827 147.707 26.464C147.707 26.6987 147.59 26.912 147.355 27.104C147.067 27.3813 146.667 27.6267 146.155 27.84C145.654 28.0533 145.126 28.16 144.571 28.16ZM154.3 19.392C155.057 19.392 155.644 19.552 156.06 19.872C156.476 20.1813 156.764 20.6027 156.924 21.136C157.094 21.6587 157.18 22.2453 157.18 22.896V27.184C157.18 27.4187 157.1 27.616 156.94 27.776C156.79 27.9253 156.604 28 156.38 28C156.145 28 155.953 27.9253 155.804 27.776C155.654 27.616 155.58 27.4187 155.58 27.184V22.912C155.58 22.528 155.526 22.1867 155.42 21.888C155.313 21.5787 155.126 21.3333 154.86 21.152C154.604 20.96 154.241 20.864 153.772 20.864C153.334 20.864 152.95 20.96 152.62 21.152C152.289 21.3333 152.028 21.5787 151.836 21.888C151.654 22.1867 151.564 22.528 151.564 22.912V27.184C151.564 27.4187 151.484 27.616 151.324 27.776C151.174 27.9253 150.988 28 150.764 28C150.529 28 150.337 27.9253 150.188 27.776C150.038 27.616 149.964 27.4187 149.964 27.184V20.4C149.964 20.1653 150.038 19.9733 150.188 19.824C150.337 19.664 150.529 19.584 150.764 19.584C150.988 19.584 151.174 19.664 151.324 19.824C151.484 19.9733 151.564 20.1653 151.564 20.4V21.296L151.276 21.456C151.35 21.2213 151.478 20.9867 151.66 20.752C151.852 20.5067 152.081 20.2827 152.348 20.08C152.614 19.8667 152.913 19.7013 153.244 19.584C153.574 19.456 153.926 19.392 154.3 19.392Z" fill="black"/>
<defs>
<clipPath id="clip0_1315_3397">
<rect width="26" height="43" fill="white"/>
</clipPath>
</defs>
</svg>
