<svg width="50" height="14" viewBox="0 0 50 14" fill="none" xmlns="http://www.w3.org/2000/svg">
<mask id="mask0_1569_800" style="mask-type:alpha" maskUnits="userSpaceOnUse" x="0" y="3" width="9" height="10">
<path d="M0 3.66309H8.96959V12.8185H0V3.66309Z" fill="white"/>
</mask>
<g mask="url(#mask0_1569_800)">
<path fill-rule="evenodd" clip-rule="evenodd" d="M3.86165 10.6212C4.19124 11.6466 4.15463 11.7382 4.15463 12.2692H4.81385C4.81385 11.7382 4.77724 11.6283 5.10682 10.6212L7.32242 3.66309H8.97038L5.96739 12.8185H3.00104L-0.00195312 3.66309H1.64601L3.86165 10.6212Z" fill="white"/>
</g>
<path fill-rule="evenodd" clip-rule="evenodd" d="M31.2461 3.66309V8.82675C31.2461 10.9325 32.3814 11.8114 33.9927 11.8114C35.8787 11.8114 36.7394 10.6945 36.7394 8.58875V3.66309H38.2043V12.8185H36.7394V11.4636H36.0802C35.6041 12.7636 34.4139 13.0749 33.4801 13.0749C30.9897 13.0749 29.7812 11.4636 29.7812 8.82675V3.66309H31.2461Z" fill="white"/>
<mask id="mask1_1569_800" style="mask-type:alpha" maskUnits="userSpaceOnUse" x="10" y="0" width="40" height="14">
<path d="M10.1289 0.0250244H49.3734V13.975H10.1289V0.0250244Z" fill="white"/>
</mask>
<g mask="url(#mask1_1569_800)">
<path fill-rule="evenodd" clip-rule="evenodd" d="M44.9603 4.65191C43.3856 4.65191 42.3235 5.67731 42.1038 7.36188H47.8534C47.6335 5.67731 46.5716 4.65191 44.9603 4.65191ZM44.9603 3.40674C47.9267 3.40674 49.3731 5.47587 49.3731 8.09435V8.49719H42.0489C42.1038 10.5297 43.2024 11.8481 44.9603 11.8481C46.3155 11.8481 47.1942 11.0973 47.6518 9.85218H49.1903C48.6776 11.7382 47.3408 13.0749 44.9603 13.0749C42.0489 13.0749 40.584 11.0058 40.584 8.369V8.09435C40.584 5.47587 42.0489 3.40674 44.9603 3.40674Z" fill="white"/>
<path fill-rule="evenodd" clip-rule="evenodd" d="M26.0469 0.0250244H24.582V11.5185C24.582 12.2326 25.168 12.8186 25.8821 12.8186H27.5255V11.3904H26.0469V0.0250244Z" fill="white"/>
<path fill-rule="evenodd" clip-rule="evenodd" d="M14.5539 12.6293H17.7589L20.2142 10.5691L20.7706 7.41291L19.1681 4.63715L16.1564 3.54106L13.1447 4.63715L11.5422 7.41291L12.0987 10.5691L14.5539 12.6293ZM18.2497 13.9778H14.0631L10.8559 11.2867L10.1289 7.16359L12.2222 3.53799L16.1564 2.10608L20.0906 3.53799L22.1839 7.16359L21.4568 11.2867L18.2497 13.9778Z" fill="white"/>
</g>
</svg>
